<?xml version="1.0" encoding="UTF-8" standalone="no"?>
<!DOCTYPE svg PUBLIC "-//W3C//DTD SVG 1.1//EN" "http://www.w3.org/Graphics/SVG/1.1/DTD/svg11.dtd">
<svg width="100%" height="100%" viewBox="0 0 2388 1668" version="1.1" xmlns="http://www.w3.org/2000/svg" xmlns:xlink="http://www.w3.org/1999/xlink" xml:space="preserve" xmlns:serif="http://www.serif.com/" style="fill-rule:evenodd;clip-rule:evenodd;stroke-linejoin:round;stroke-miterlimit:2;">
    <g transform="matrix(19.4069,0,0,19.4069,-21987.6,-20670.2)">
        <circle cx="1197.23" cy="1083.58" r="17.1" style="fill:rgb(177,211,226);"/>
    </g>
    <g transform="matrix(19.4069,0,0,19.4069,-22383.3,-20489.6)">
        <circle cx="1197.23" cy="1083.58" r="17.1" style="fill:rgb(177,211,226);"/>
    </g>
    <g transform="matrix(19.4069,0,0,19.4069,-22478.2,-20053)">
        <circle cx="1197.23" cy="1083.58" r="17.1" style="fill:rgb(177,211,226);"/>
    </g>
    <g transform="matrix(19.4069,0,0,19.4069,-22202.2,-19729.7)">
        <circle cx="1197.23" cy="1083.58" r="17.1" style="fill:rgb(177,211,226);"/>
    </g>
    <g transform="matrix(19.4069,0,0,19.4069,-21777,-19729.9)">
        <circle cx="1197.23" cy="1083.58" r="17.1" style="fill:rgb(177,211,226);"/>
    </g>
    <g transform="matrix(19.4069,0,0,19.4069,-21497.7,-20066.8)">
        <circle cx="1197.23" cy="1083.58" r="17.1" style="fill:rgb(177,211,226);"/>
    </g>
    <g transform="matrix(19.4069,0,0,19.4069,-21585.3,-20491.3)">
        <circle cx="1197.23" cy="1083.58" r="17.1" style="fill:rgb(177,211,226);"/>
    </g>
    <g transform="matrix(19.4069,0,0,19.4069,-22003.5,-20184)">
        <circle cx="1197.23" cy="1083.58" r="17.1" style="fill:rgb(177,211,226);"/>
    </g>
</svg>
