<?xml version="1.0" encoding="UTF-8" standalone="no"?>
<!DOCTYPE svg PUBLIC "-//W3C//DTD SVG 1.1//EN" "http://www.w3.org/Graphics/SVG/1.1/DTD/svg11.dtd">
<svg width="100%" height="100%" viewBox="0 0 4267 3200" version="1.1" xmlns="http://www.w3.org/2000/svg" xmlns:xlink="http://www.w3.org/1999/xlink" xml:space="preserve" xmlns:serif="http://www.serif.com/" style="fill-rule:evenodd;clip-rule:evenodd;stroke-linejoin:round;stroke-miterlimit:2;">
    <g transform="matrix(1.30262,0,0,1.30262,-402.087,-119.723)">
        <path d="M828.742,823.895C818.076,845.495 802.209,870.162 781.142,897.895C761.676,922.962 744.476,942.429 729.542,956.295C685.276,996.829 647.809,1023.5 617.142,1036.3C619.276,1045.89 620.076,1057.36 619.542,1070.69C617.942,1104.3 615.276,1133.23 611.542,1157.5C606.209,1191.63 602.609,1217.89 600.742,1236.3C597.542,1266.69 595.942,1286.43 595.942,1295.5C595.942,1324.03 603.276,1344.83 617.942,1357.89C620.609,1359.76 621.142,1361.76 619.542,1363.89C618.476,1365.23 616.742,1365.36 614.342,1364.3C590.876,1349.1 579.676,1321.23 580.742,1280.69C581.276,1260.96 586.342,1221.5 595.942,1162.3C603.676,1115.1 607.542,1082.3 607.542,1063.89C607.542,1054.83 606.876,1047.1 605.542,1040.69C603.676,1041.5 600.742,1042.3 596.742,1043.1C569.276,1091.36 551.942,1120.96 544.742,1131.89C523.676,1164.43 501.809,1190.56 479.142,1210.3C469.542,1218.56 458.609,1222.69 446.342,1222.69C428.742,1222.69 419.942,1211.36 419.942,1188.69C419.942,1178.83 421.942,1168.83 425.942,1158.69C426.476,1155.76 428.609,1153.63 432.342,1152.3C437.409,1152.3 439.009,1154.3 437.142,1158.3C435.009,1183.36 440.209,1197.36 452.742,1200.3C463.409,1202.69 476.876,1194.69 493.142,1176.3C521.409,1144.3 550.476,1100.56 580.342,1045.1C567.542,1044.03 561.542,1038.96 562.342,1029.89C562.876,1024.03 565.276,1019.1 569.542,1015.1C577.009,1008.16 586.742,1007.23 598.742,1012.3C603.542,1003.76 611.809,988.562 623.542,966.695C646.209,924.295 659.142,894.562 662.342,877.495C662.609,876.162 662.342,875.362 661.542,875.095C660.742,874.829 659.542,874.829 657.942,875.095C651.809,876.429 635.676,883.495 609.542,896.295C609.009,896.562 608.342,896.695 607.542,896.695C604.342,896.695 602.742,895.095 602.742,891.895C602.742,890.295 603.542,888.695 605.142,887.095C618.476,878.029 637.942,868.029 663.542,857.095C667.542,855.495 671.542,855.229 675.542,856.295C680.609,857.629 682.742,861.095 681.942,866.695C679.542,882.695 664.609,917.229 637.142,970.295C631.542,980.962 622.342,997.762 609.542,1020.7C610.609,1022.3 611.542,1023.63 612.342,1024.69C626.209,1019.36 641.276,1010.56 657.542,998.295C672.209,986.562 686.876,974.829 701.542,963.095C741.542,931.362 780.609,884.695 818.742,823.095C820.609,820.162 822.876,818.695 825.542,818.695C827.942,818.695 829.142,819.762 829.142,821.895C829.142,822.695 829.009,823.362 828.742,823.895ZM593.542,1021.5C583.942,1018.03 578.742,1020.03 577.942,1027.5C577.676,1029.63 581.142,1030.69 588.342,1030.69C588.609,1030.16 590.342,1027.1 593.542,1021.5Z" style="fill:rgb(120,0,172);fill-rule:nonzero;"/>
        <path d="M903.942,841.495C903.409,861.495 888.342,890.829 858.742,929.495C841.409,952.162 805.142,990.162 749.942,1043.5L721.942,1070.69C715.276,1081.1 707.809,1092.96 699.542,1106.3C684.342,1136.16 675.676,1158.43 673.542,1173.1C671.409,1188.56 676.742,1196.3 689.542,1196.3C697.276,1196.3 703.676,1194.83 708.742,1191.89C725.809,1182.3 741.142,1171.63 754.742,1159.89C755.809,1159.1 757.009,1159.1 758.342,1159.89C759.942,1160.69 760.076,1161.63 758.742,1162.69C738.476,1181.1 723.809,1193.23 714.742,1199.1C704.609,1205.5 694.609,1208.69 684.742,1208.69C670.076,1208.69 662.076,1202.03 660.742,1188.69C658.609,1165.23 668.609,1134.83 690.742,1097.5C708.076,1067.1 733.142,1025.63 765.942,973.095C803.009,920.562 844.742,874.162 891.142,833.895C894.609,830.962 897.942,830.562 901.142,832.695C903.009,834.029 903.942,836.962 903.942,841.495ZM892.342,855.095C892.342,851.362 890.342,851.495 886.342,855.495C856.742,877.895 821.142,918.962 779.542,978.695C760.876,1005.89 745.542,1029.63 733.542,1049.89C736.209,1047.23 740.076,1043.36 745.142,1038.3C763.809,1019.89 782.342,1001.63 800.742,983.495C821.276,962.429 838.476,942.829 852.342,924.695C866.209,906.562 874.476,895.495 877.142,891.495C885.676,878.162 890.742,866.029 892.342,855.095Z" style="fill:rgb(120,0,172);fill-rule:nonzero;"/>
        <path d="M955.142,1159.5C940.476,1175.76 927.676,1187.89 916.742,1195.89C907.942,1202.3 898.209,1205.5 887.542,1205.5C885.409,1205.5 883.276,1205.36 881.142,1205.1C872.076,1203.76 866.076,1199.1 863.142,1191.1C861.542,1186.56 860.742,1182.16 860.742,1177.89C860.742,1170.69 863.942,1161.1 870.342,1149.1C862.342,1155.76 849.142,1165.36 830.742,1177.89C820.876,1183.76 805.542,1191.63 784.742,1201.5C774.076,1205.5 765.142,1207.5 757.942,1207.5C751.009,1207.5 746.076,1205.89 743.142,1202.69C737.542,1196.83 736.742,1189.5 740.742,1180.69C748.476,1163.36 762.876,1147.76 783.942,1133.89C813.276,1114.43 839.942,1103.5 863.942,1101.1C865.276,1100.56 866.209,1101.23 866.742,1103.1C866.742,1104.69 865.809,1105.5 863.942,1105.5C831.942,1115.1 807.542,1126.16 790.742,1138.69C784.342,1142.96 775.542,1150.56 764.342,1161.5C756.876,1171.1 753.676,1178.69 754.742,1184.3C755.276,1186.96 757.276,1188.56 760.742,1189.1C772.476,1190.69 784.476,1188.56 796.742,1182.69C821.009,1170.96 840.476,1160.3 855.142,1150.69C874.876,1137.89 893.142,1120.56 909.942,1098.69C913.142,1094.69 915.676,1093.89 917.542,1096.3C919.942,1099.23 919.809,1102.03 917.142,1104.69C913.676,1108.43 907.942,1114.56 899.942,1123.1C894.342,1130.56 891.009,1135.76 889.942,1138.69C880.076,1154.16 875.142,1167.76 875.142,1179.5C875.142,1181.36 875.276,1183.23 875.542,1185.1C876.076,1190.43 880.209,1194.03 887.942,1195.89C894.609,1197.5 902.076,1196.16 910.342,1191.89C925.809,1181.5 939.942,1169.89 952.742,1157.1C953.542,1156.3 954.209,1156.16 954.742,1156.69C956.076,1157.5 956.209,1158.43 955.142,1159.5Z" style="fill:rgb(120,0,172);fill-rule:nonzero;"/>
        <path d="M1098.74,1160.69C1093.14,1166.56 1087.41,1172.43 1081.54,1178.3C1070.08,1189.23 1060.61,1196.16 1053.14,1199.1C1048.08,1200.96 1039.14,1203.36 1026.34,1206.3C1017.28,1214.03 1005.68,1217.63 991.542,1217.1C977.142,1216.56 970.076,1211.5 970.342,1201.89C970.609,1192.83 977.409,1188.3 990.742,1188.3C989.942,1188.3 996.876,1190.43 1011.54,1194.69C1020.08,1189.63 1025.81,1179.36 1028.74,1163.89C1028.48,1151.1 1028.34,1135.1 1028.34,1115.89C1028.88,1112.96 1029.54,1108.16 1030.34,1101.5C1006.61,1120.69 973.942,1147.1 932.342,1180.69C932.076,1180.96 931.209,1180.83 929.742,1180.3C928.276,1179.76 927.409,1179.23 927.142,1178.69C927.409,1176.03 927.809,1174.43 928.342,1173.89C957.676,1149.63 983.276,1128.96 1005.14,1111.89C1012.61,1105.23 1021.28,1097.63 1031.14,1089.1C1032.74,1083.76 1036.21,1078.76 1041.54,1074.1C1046.88,1069.43 1052.21,1067.1 1057.54,1067.1C1061.81,1066.83 1064.48,1069.5 1065.54,1075.1C1066.34,1079.89 1064.54,1083.5 1060.14,1085.89C1055.74,1088.3 1050.21,1091.5 1043.54,1095.5C1040.88,1099.76 1039.54,1106.03 1039.54,1114.3C1039.54,1119.1 1040.21,1126.76 1041.54,1137.3C1042.88,1147.83 1043.54,1155.36 1043.54,1159.89C1043.54,1175.63 1039.94,1187.76 1032.74,1196.3C1039.94,1195.23 1046.21,1193.36 1051.54,1190.69C1071.54,1180.83 1086.48,1169.76 1096.34,1157.5C1097.14,1156.43 1098.08,1156.43 1099.14,1157.5C1099.94,1158.56 1099.81,1159.63 1098.74,1160.69Z" style="fill:rgb(120,0,172);fill-rule:nonzero;"/>
        <path d="M1198.74,1045.89C1198.74,1049.1 1197.68,1053.63 1195.54,1059.5C1191.54,1064.56 1187.68,1066.69 1183.94,1065.89C1177.54,1064.56 1175.14,1060.83 1176.74,1054.69C1176.74,1054.43 1179.41,1050.69 1184.74,1043.5L1189.14,1039.1C1190.48,1037.76 1191.81,1036.83 1193.14,1036.3C1193.68,1035.23 1194.54,1035.23 1195.74,1036.3C1196.94,1037.36 1197.94,1040.56 1198.74,1045.89ZM1190.74,1164.69C1171.28,1182.56 1156.88,1194.43 1147.54,1200.3C1136.61,1207.23 1126.61,1210.43 1117.54,1209.89C1108.21,1209.36 1101.28,1207.16 1096.74,1203.3C1092.21,1199.43 1089.94,1194.16 1089.94,1187.5C1089.94,1176.83 1094.48,1165.36 1103.54,1153.1C1108.61,1145.63 1117.01,1134.03 1128.74,1118.3C1131.41,1114.56 1136.61,1107.89 1144.34,1098.3C1145.94,1096.43 1149.01,1093.36 1153.54,1089.1C1157.28,1085.36 1160.74,1086.56 1163.94,1092.69C1164.48,1094.3 1163.28,1096.96 1160.34,1100.69C1159.28,1102.3 1157.14,1105.1 1153.94,1109.1C1131.81,1135.5 1116.48,1157.63 1107.94,1175.5C1106.88,1177.36 1106.34,1179.63 1106.34,1182.3C1106.34,1192.43 1111.68,1197.5 1122.34,1197.5C1130.08,1197.5 1136.48,1196.03 1141.54,1193.1C1158.88,1183.23 1173.94,1172.83 1186.74,1161.89C1187.81,1161.1 1189.01,1161.1 1190.34,1161.89C1191.94,1162.69 1192.08,1163.63 1190.74,1164.69Z" style="fill:rgb(120,0,172);fill-rule:nonzero;"/>
        <path d="M1371.94,1159.5C1363.14,1167.5 1346.88,1177.5 1323.14,1189.5C1311.14,1195.63 1295.01,1200.96 1274.74,1205.5C1252.61,1210.3 1234.34,1212.3 1219.94,1211.5C1208.74,1210.69 1199.41,1208.03 1191.94,1203.5C1183.41,1198.16 1179.68,1190.43 1180.74,1180.3C1182.61,1164.03 1193.28,1148.16 1212.74,1132.69C1249.01,1103.89 1278.34,1089.5 1300.74,1089.5C1305.28,1089.5 1309.54,1089.89 1313.54,1090.69C1319.94,1092.03 1323.14,1094.3 1323.14,1097.5C1327.41,1094.03 1329.94,1092.3 1330.74,1092.3C1333.41,1092.3 1333.94,1093.89 1332.34,1097.1C1331.01,1098.43 1328.48,1101.16 1324.74,1105.3C1321.01,1109.43 1315.54,1116.03 1308.34,1125.1C1303.81,1131.23 1299.54,1134.3 1295.54,1134.3C1295.01,1134.3 1294.61,1134.16 1294.34,1133.89C1293.01,1131.5 1295.81,1126.83 1302.74,1119.89C1306.74,1114.56 1309.01,1109.76 1309.54,1105.5C1310.08,1100.43 1307.94,1097.89 1303.14,1097.89C1290.08,1097.89 1277.41,1101.5 1265.14,1108.69C1232.88,1127.36 1211.54,1148.56 1201.14,1172.3C1200.34,1173.89 1199.94,1175.89 1199.94,1178.3C1199.94,1190.83 1208.74,1197.63 1226.34,1198.69C1256.48,1200.83 1286.34,1195.76 1315.94,1183.5C1332.21,1176.83 1341.68,1172.83 1344.34,1171.5C1353.41,1167.23 1361.28,1162.3 1367.94,1156.69C1369.01,1155.89 1370.21,1155.89 1371.54,1156.69C1373.14,1157.5 1373.28,1158.43 1371.94,1159.5Z" style="fill:rgb(120,0,172);fill-rule:nonzero;"/>
    </g>
    <g transform="matrix(1.26963,0,0,1.26963,-1067.87,-31.1465)">
        <path d="M3213.98,1223.04C3212.92,1227.31 3210.78,1229.97 3207.58,1231.04C3180.12,1243.57 3153.18,1251.71 3126.78,1255.44C3125.72,1255.97 3124.78,1256.24 3123.98,1256.24C3107.45,1260.77 3089.18,1271.97 3069.18,1289.84C3049.18,1307.71 3029.32,1334.64 3009.58,1370.64C2993.05,1401.04 2976.65,1431.31 2960.38,1461.44C2918.78,1528.91 2886.38,1538.91 2904.78,1519.44C2923.18,1499.97 2940.92,1475.04 2957.98,1444.64C2972.65,1417.97 2987.32,1391.31 3001.98,1364.64C3015.05,1343.04 3024.52,1327.97 3030.38,1319.44C3042.12,1302.91 3053.58,1289.84 3064.78,1280.24C3077.32,1269.57 3087.85,1261.84 3096.38,1257.04C3080.65,1257.04 3066.25,1255.17 3053.18,1251.44C3044.12,1248.51 3035.05,1245.57 3025.98,1242.64C3014.78,1239.44 3004.78,1237.84 2995.98,1237.84C2981.58,1237.84 2967.32,1242.11 2953.18,1250.64C2944.38,1255.97 2937.85,1264.77 2933.58,1277.04C2931.98,1281.57 2933.05,1284.37 2936.78,1285.44C2938.65,1285.97 2940.65,1286.24 2942.78,1286.24C2948.12,1286.24 2954.45,1283.84 2961.78,1279.04C2969.12,1274.24 2976.38,1269.31 2983.58,1264.24C2985.98,1262.64 2987.72,1262.24 2988.78,1263.04C2990.65,1264.64 2989.98,1266.91 2986.78,1269.84C2974.78,1281.04 2961.72,1290.51 2947.58,1298.24C2941.45,1301.44 2935.98,1303.04 2931.18,1303.04C2922.12,1303.04 2917.58,1298.24 2917.58,1288.64C2917.58,1286.51 2917.85,1284.11 2918.38,1281.44C2921.85,1265.71 2932.92,1251.97 2951.58,1240.24C2967.58,1230.37 2983.98,1225.44 3000.78,1225.44C3007.98,1225.44 3027.72,1229.57 3059.98,1237.84C3073.32,1241.31 3087.45,1243.04 3102.38,1243.04C3135.18,1243.04 3169.98,1234.64 3206.78,1217.84C3211.58,1217.04 3213.98,1218.77 3213.98,1223.04Z" style="fill:rgb(120,0,172);fill-rule:nonzero;stroke:rgb(139,16,193);stroke-width:0.79px;"/>
        <path d="M3157.18,1503.44C3139.05,1519.97 3124.12,1531.97 3112.38,1539.44C3092.12,1552.51 3074.12,1558.64 3058.38,1557.84C3049.32,1557.31 3043.05,1555.57 3039.58,1552.64C3034.25,1548.11 3032.52,1541.71 3034.38,1533.44C3037.85,1517.97 3051.45,1499.04 3075.18,1476.64C3071.45,1465.71 3070.38,1455.84 3071.98,1447.04C3061.58,1456.91 3043.05,1474.64 3016.38,1500.24C3014.52,1502.11 3013.18,1501.71 3012.38,1499.04C3012.38,1497.97 3012.65,1496.77 3013.18,1495.44C3016.38,1492.51 3029.85,1479.17 3053.58,1455.44C3061.58,1447.17 3070.92,1437.84 3081.58,1427.44C3086.65,1421.57 3091.05,1420.77 3094.78,1425.04C3097.72,1428.51 3096.52,1433.31 3091.18,1439.44C3088.25,1442.91 3086.78,1446.77 3086.78,1451.04C3086.78,1453.97 3087.72,1458.44 3089.58,1464.44C3091.45,1470.44 3092.38,1475.04 3092.38,1478.24C3092.38,1483.04 3091.18,1486.11 3088.78,1487.44C3080.78,1491.97 3072.92,1499.37 3065.18,1509.64C3057.45,1519.91 3053.05,1528.24 3051.98,1534.64C3050.92,1540.51 3054.12,1543.44 3061.58,1543.44C3077.85,1543.44 3092.78,1539.57 3106.38,1531.84C3126.92,1520.11 3142.52,1509.71 3153.18,1500.64C3154.25,1499.84 3155.45,1499.84 3156.78,1500.64C3158.38,1501.44 3158.52,1502.37 3157.18,1503.44Z" style="fill:rgb(120,0,172);fill-rule:nonzero;stroke:rgb(139,16,193);stroke-width:0.79px;"/>
        <path d="M3360.38,1500.24C3345.72,1516.51 3332.92,1528.64 3321.98,1536.64C3313.18,1543.04 3303.45,1546.24 3292.78,1546.24C3290.65,1546.24 3288.52,1546.11 3286.38,1545.84C3277.32,1544.51 3271.32,1539.84 3268.38,1531.84C3266.78,1527.31 3265.98,1522.91 3265.98,1518.64C3265.98,1511.44 3269.18,1501.84 3275.58,1489.84C3267.58,1496.51 3254.38,1506.11 3235.98,1518.64C3226.12,1524.51 3210.78,1532.37 3189.98,1542.24C3179.32,1546.24 3170.38,1548.24 3163.18,1548.24C3156.25,1548.24 3151.32,1546.64 3148.38,1543.44C3142.78,1537.57 3141.98,1530.24 3145.98,1521.44C3153.72,1504.11 3168.12,1488.51 3189.18,1474.64C3218.52,1455.17 3245.18,1444.24 3269.18,1441.84C3270.52,1441.31 3271.45,1441.97 3271.98,1443.84C3271.98,1445.44 3271.05,1446.24 3269.18,1446.24C3237.18,1455.84 3212.78,1466.91 3195.98,1479.44C3189.58,1483.71 3180.78,1491.31 3169.58,1502.24C3162.12,1511.84 3158.92,1519.44 3159.98,1525.04C3160.52,1527.71 3162.52,1529.31 3165.98,1529.84C3177.72,1531.44 3189.72,1529.31 3201.98,1523.44C3226.25,1511.71 3245.72,1501.04 3260.38,1491.44C3280.12,1478.64 3298.38,1461.31 3315.18,1439.44C3318.38,1435.44 3320.92,1434.64 3322.78,1437.04C3325.18,1439.97 3325.05,1442.77 3322.38,1445.44C3318.92,1449.17 3313.18,1455.31 3305.18,1463.84C3299.58,1471.31 3296.25,1476.51 3295.18,1479.44C3285.32,1494.91 3280.38,1508.51 3280.38,1520.24C3280.38,1522.11 3280.52,1523.97 3280.78,1525.84C3281.32,1531.17 3285.45,1534.77 3293.18,1536.64C3299.85,1538.24 3307.32,1536.91 3315.58,1532.64C3331.05,1522.24 3345.18,1510.64 3357.98,1497.84C3358.78,1497.04 3359.45,1496.91 3359.98,1497.44C3361.32,1498.24 3361.45,1499.17 3360.38,1500.24Z" style="fill:rgb(120,0,172);fill-rule:nonzero;stroke:rgb(139,16,193);stroke-width:0.79px;"/>
        <path d="M3455.98,1386.64C3455.98,1389.84 3454.92,1394.37 3452.78,1400.24C3448.78,1405.31 3444.92,1407.44 3441.18,1406.64C3434.78,1405.31 3432.38,1401.57 3433.98,1395.44C3433.98,1395.17 3436.65,1391.44 3441.98,1384.24L3446.38,1379.84C3447.72,1378.51 3449.05,1377.57 3450.38,1377.04C3450.92,1375.97 3451.78,1375.97 3452.98,1377.04C3454.18,1378.11 3455.18,1381.31 3455.98,1386.64ZM3447.98,1505.44C3428.52,1523.31 3414.12,1535.17 3404.78,1541.04C3393.85,1547.97 3383.85,1551.17 3374.78,1550.64C3365.45,1550.11 3358.52,1547.91 3353.98,1544.04C3349.45,1540.17 3347.18,1534.91 3347.18,1528.24C3347.18,1517.57 3351.72,1506.11 3360.78,1493.84C3365.85,1486.37 3374.25,1474.77 3385.98,1459.04C3388.65,1455.31 3393.85,1448.64 3401.58,1439.04C3403.18,1437.17 3406.25,1434.11 3410.78,1429.84C3414.52,1426.11 3417.98,1427.31 3421.18,1433.44C3421.72,1435.04 3420.52,1437.71 3417.58,1441.44C3416.52,1443.04 3414.38,1445.84 3411.18,1449.84C3389.05,1476.24 3373.72,1498.37 3365.18,1516.24C3364.12,1518.11 3363.58,1520.37 3363.58,1523.04C3363.58,1533.17 3368.92,1538.24 3379.58,1538.24C3387.32,1538.24 3393.72,1536.77 3398.78,1533.84C3416.12,1523.97 3431.18,1513.57 3443.98,1502.64C3445.05,1501.84 3446.25,1501.84 3447.58,1502.64C3449.18,1503.44 3449.32,1504.37 3447.98,1505.44Z" style="fill:rgb(120,0,172);fill-rule:nonzero;stroke:rgb(139,16,193);stroke-width:0.79px;"/>
        <path d="M3659.18,1503.44C3638.92,1521.84 3624.25,1533.97 3615.18,1539.84C3605.05,1546.24 3595.45,1549.44 3586.38,1549.44C3569.85,1549.44 3559.98,1543.97 3556.78,1533.04C3553.58,1521.84 3555.98,1511.17 3563.98,1501.04C3581.05,1479.44 3589.58,1468.24 3589.58,1467.44C3589.58,1465.31 3587.72,1464.77 3583.98,1465.84C3559.45,1473.57 3533.58,1487.71 3506.38,1508.24C3488.78,1522.64 3471.32,1537.17 3453.98,1551.84L3446.78,1556.64C3444.12,1557.97 3441.72,1558.64 3439.58,1558.64C3437.18,1558.64 3435.85,1557.57 3435.58,1555.44C3435.58,1552.24 3436.38,1549.84 3437.98,1548.24L3441.98,1544.24C3453.98,1532.24 3467.52,1517.37 3482.58,1499.64C3497.65,1481.91 3505.05,1471.84 3504.78,1469.44C3503.98,1467.84 3503.05,1467.04 3501.98,1467.04C3498.52,1467.04 3491.05,1471.71 3479.58,1481.04C3467.85,1491.17 3455.98,1501.31 3443.98,1511.44C3441.85,1513.57 3440.38,1513.17 3439.58,1510.24C3439.58,1507.84 3439.98,1506.24 3440.78,1505.44C3452.78,1495.31 3464.65,1485.17 3476.38,1475.04C3491.85,1462.51 3502.92,1455.71 3509.58,1454.64C3517.58,1453.57 3522.92,1456.11 3525.58,1462.24C3525.85,1463.84 3524.38,1468.24 3521.18,1475.44C3517.18,1484.24 3511.18,1492.77 3503.18,1501.04C3533.05,1480.24 3563.05,1463.44 3593.18,1450.64C3596.92,1449.04 3601.05,1448.24 3605.58,1448.24C3612.52,1448.24 3616.25,1450.24 3616.78,1454.24C3617.32,1456.37 3615.72,1459.97 3611.98,1465.04C3607.98,1470.91 3599.85,1481.17 3587.58,1495.84C3576.92,1507.04 3571.85,1517.04 3572.38,1525.84C3572.65,1530.91 3577.32,1534.51 3586.38,1536.64C3593.85,1538.51 3601.45,1537.17 3609.18,1532.64C3626.25,1523.04 3641.58,1512.37 3655.18,1500.64C3656.25,1499.84 3657.45,1499.84 3658.78,1500.64C3660.38,1501.44 3660.52,1502.37 3659.18,1503.44Z" style="fill:rgb(120,0,172);fill-rule:nonzero;stroke:rgb(139,16,193);stroke-width:0.79px;"/>
        <path d="M3747.98,1386.64C3747.98,1389.84 3746.92,1394.37 3744.78,1400.24C3740.78,1405.31 3736.92,1407.44 3733.18,1406.64C3726.78,1405.31 3724.38,1401.57 3725.98,1395.44C3725.98,1395.17 3728.65,1391.44 3733.98,1384.24L3738.38,1379.84C3739.72,1378.51 3741.05,1377.57 3742.38,1377.04C3742.92,1375.97 3743.78,1375.97 3744.98,1377.04C3746.18,1378.11 3747.18,1381.31 3747.98,1386.64ZM3739.98,1505.44C3720.52,1523.31 3706.12,1535.17 3696.78,1541.04C3685.85,1547.97 3675.85,1551.17 3666.78,1550.64C3657.45,1550.11 3650.52,1547.91 3645.98,1544.04C3641.45,1540.17 3639.18,1534.91 3639.18,1528.24C3639.18,1517.57 3643.72,1506.11 3652.78,1493.84C3657.85,1486.37 3666.25,1474.77 3677.98,1459.04C3680.65,1455.31 3685.85,1448.64 3693.58,1439.04C3695.18,1437.17 3698.25,1434.11 3702.78,1429.84C3706.52,1426.11 3709.98,1427.31 3713.18,1433.44C3713.72,1435.04 3712.52,1437.71 3709.58,1441.44C3708.52,1443.04 3706.38,1445.84 3703.18,1449.84C3681.05,1476.24 3665.72,1498.37 3657.18,1516.24C3656.12,1518.11 3655.58,1520.37 3655.58,1523.04C3655.58,1533.17 3660.92,1538.24 3671.58,1538.24C3679.32,1538.24 3685.72,1536.77 3690.78,1533.84C3708.12,1523.97 3723.18,1513.57 3735.98,1502.64C3737.05,1501.84 3738.25,1501.84 3739.58,1502.64C3741.18,1503.44 3741.32,1504.37 3739.98,1505.44Z" style="fill:rgb(120,0,172);fill-rule:nonzero;stroke:rgb(139,16,193);stroke-width:0.79px;"/>
        <path d="M3951.18,1503.44C3930.92,1521.84 3916.25,1533.97 3907.18,1539.84C3897.05,1546.24 3887.45,1549.44 3878.38,1549.44C3861.85,1549.44 3851.98,1543.97 3848.78,1533.04C3845.58,1521.84 3847.98,1511.17 3855.98,1501.04C3873.05,1479.44 3881.58,1468.24 3881.58,1467.44C3881.58,1465.31 3879.72,1464.77 3875.98,1465.84C3851.45,1473.57 3825.58,1487.71 3798.38,1508.24C3780.78,1522.64 3763.32,1537.17 3745.98,1551.84L3738.78,1556.64C3736.12,1557.97 3733.72,1558.64 3731.58,1558.64C3729.18,1558.64 3727.85,1557.57 3727.58,1555.44C3727.58,1552.24 3728.38,1549.84 3729.98,1548.24L3733.98,1544.24C3745.98,1532.24 3759.52,1517.37 3774.58,1499.64C3789.65,1481.91 3797.05,1471.84 3796.78,1469.44C3795.98,1467.84 3795.05,1467.04 3793.98,1467.04C3790.52,1467.04 3783.05,1471.71 3771.58,1481.04C3759.85,1491.17 3747.98,1501.31 3735.98,1511.44C3733.85,1513.57 3732.38,1513.17 3731.58,1510.24C3731.58,1507.84 3731.98,1506.24 3732.78,1505.44C3744.78,1495.31 3756.65,1485.17 3768.38,1475.04C3783.85,1462.51 3794.92,1455.71 3801.58,1454.64C3809.58,1453.57 3814.92,1456.11 3817.58,1462.24C3817.85,1463.84 3816.38,1468.24 3813.18,1475.44C3809.18,1484.24 3803.18,1492.77 3795.18,1501.04C3825.05,1480.24 3855.05,1463.44 3885.18,1450.64C3888.92,1449.04 3893.05,1448.24 3897.58,1448.24C3904.52,1448.24 3908.25,1450.24 3908.78,1454.24C3909.32,1456.37 3907.72,1459.97 3903.98,1465.04C3899.98,1470.91 3891.85,1481.17 3879.58,1495.84C3868.92,1507.04 3863.85,1517.04 3864.38,1525.84C3864.65,1530.91 3869.32,1534.51 3878.38,1536.64C3885.85,1538.51 3893.45,1537.17 3901.18,1532.64C3918.25,1523.04 3933.58,1512.37 3947.18,1500.64C3948.25,1499.84 3949.45,1499.84 3950.78,1500.64C3952.38,1501.44 3952.52,1502.37 3951.18,1503.44Z" style="fill:rgb(120,0,172);fill-rule:nonzero;stroke:rgb(139,16,193);stroke-width:0.79px;"/>
        <path d="M4143.58,1497.44C4144.65,1497.97 4144.38,1498.91 4142.78,1500.24C4124.38,1517.04 4109.58,1529.17 4098.38,1536.64C4095.18,1538.77 4079.72,1549.57 4051.98,1569.04C4012.25,1662.91 3965.98,1755.57 3913.18,1847.04C3891.58,1884.91 3870.12,1922.91 3848.78,1961.04C3822.65,2003.17 3795.85,2036.64 3768.38,2061.44C3760.92,2068.11 3753.72,2071.44 3746.78,2071.44C3739.58,2071.44 3734.52,2067.44 3731.58,2059.44C3729.72,2043.71 3732.38,2025.84 3739.58,2005.84C3766.52,1929.57 3801.85,1856.91 3845.58,1787.84C3901.85,1699.31 3967.32,1624.64 4041.98,1563.84C4049.18,1545.17 4058.25,1522.91 4069.18,1497.04C4034.25,1523.44 3999.18,1536.77 3963.98,1537.04C3958.12,1537.04 3952.65,1535.57 3947.58,1532.64C3941.45,1529.17 3938.38,1524.77 3938.38,1519.44C3938.38,1507.71 3946.38,1496.11 3962.38,1484.64C3995.72,1460.64 4048.92,1439.57 4121.98,1421.44C4123.05,1421.17 4123.98,1421.71 4124.78,1423.04C4124.78,1425.44 4124.25,1426.64 4123.18,1426.64C4056.78,1444.51 4007.32,1464.91 3974.78,1487.84C3970.25,1491.04 3966.65,1495.37 3963.98,1500.84C3961.32,1506.31 3960.38,1510.64 3961.18,1513.84C3962.52,1519.71 3967.18,1522.51 3975.18,1522.24C4015.18,1520.64 4052.12,1499.97 4085.98,1460.24C4087.05,1458.91 4088.12,1457.44 4089.18,1455.84C4091.32,1453.44 4093.05,1452.24 4094.38,1452.24C4095.18,1452.51 4095.85,1452.77 4096.38,1453.04C4101.45,1456.51 4101.45,1461.44 4096.38,1467.84C4095.05,1469.44 4091.58,1473.71 4085.98,1480.64C4079.32,1499.31 4070.92,1521.97 4060.78,1548.64C4070.65,1544.91 4081.05,1539.57 4091.98,1532.64C4114.12,1518.51 4130.52,1506.91 4141.18,1497.84C4141.98,1497.04 4142.78,1496.91 4143.58,1497.44ZM4031.98,1584.24C4011.98,1602.91 3991.85,1621.71 3971.58,1640.64C3948.65,1663.04 3928.65,1685.84 3911.58,1709.04C3815.85,1839.97 3761.05,1946.77 3747.18,2029.44C3746.92,2031.57 3746.78,2033.44 3746.78,2035.04C3746.78,2042.24 3749.72,2045.84 3755.58,2045.84C3760.12,2045.84 3764.65,2044.24 3769.18,2041.04C3818.52,1989.31 3866.25,1919.84 3912.38,1832.64C3922.25,1814.24 3962.12,1731.44 4031.98,1584.24Z" style="fill:rgb(120,0,172);fill-rule:nonzero;stroke:rgb(139,16,193);stroke-width:0.79px;"/>
    </g>
    <g transform="matrix(1,0,0,1,10.3269,-10.9764)">
        <g id="Layer2">
            <path d="M1428.89,671.658C1420.53,673.324 1412.92,675.805 1405.63,678.835C1392.88,684.132 1381.11,691.142 1367.79,698.39L1365.01,699.907C1364.94,695.822 1364.52,691.782 1363.71,687.848C1361.54,677.304 1356.58,667.506 1347.86,659.545C1344.39,656.374 1340.79,653.349 1337.13,650.397C1328.86,643.733 1320.27,637.445 1312.18,630.574L1291.1,611.364L1281.27,602.591C1280.12,601.686 1278.8,599.893 1277.49,598.608C1276.12,597.262 1274.7,596.267 1273.44,595.75C1270.13,594.391 1267.1,594.815 1264.5,597.894C1262.94,599.733 1262.22,601.796 1262.13,604.036C1262.04,606.088 1262.59,608.382 1263.5,610.696C1264.19,612.44 1265.17,614.215 1265.54,615.837L1269.67,631.774C1274.45,650.9 1279.89,674.934 1291.51,693.042C1299.99,706.269 1311.65,716.442 1328.29,720.089C1335.43,721.655 1341.94,721.338 1348.18,719.836C1348.82,719.683 1349.46,719.516 1350.09,719.336C1347.78,728.194 1343.77,736.512 1339.03,744.493C1330.71,758.471 1320.15,771.426 1311.66,784.223L1289.63,819.045C1280.82,832.938 1272.64,845.585 1266.63,859.424C1262.53,868.877 1259.44,878.878 1257.81,890.156C1255.38,906.975 1255.96,923.803 1258.29,940.495C1261.7,964.883 1268.88,988.979 1275.59,1012.3C1280.38,1028.94 1286.71,1046.5 1290.62,1064.32C1293.12,1075.7 1294.63,1087.19 1293.98,1098.61C1293.59,1105.41 1287.27,1142.06 1283.78,1166.27C1282.72,1173.57 1281.92,1179.77 1281.59,1183.79C1281.16,1188.84 1279.76,1197.59 1279.11,1205.05C1278.76,1209.02 1278.64,1212.67 1278.88,1215.4C1280.2,1230.29 1285.8,1244.51 1295.02,1256.17C1303.91,1267.42 1316.16,1276.29 1331.18,1281.07C1334.29,1282.06 1338.22,1282.36 1342.32,1282.14C1347.23,1281.88 1352.43,1280.94 1356.25,1280.24C1360.61,1279.43 1365.63,1278.13 1370.33,1276.39C1371.1,1276.1 1371.87,1275.81 1372.62,1275.49L1372.62,1275.5C1374,1282.08 1375.49,1288.64 1377.12,1295.15C1378.62,1301.17 1382.66,1309.9 1385.05,1317.17C1385.59,1318.81 1386.03,1320.36 1386.28,1321.74C1388.41,1333.42 1389.9,1343.96 1390.84,1354.54C1391.58,1362.85 1391.99,1371.19 1392.11,1380.11C1384.65,1385.3 1374.66,1392.45 1360.98,1401.49C1350.89,1408.15 1338.79,1415.84 1324.18,1424.52C1322.22,1425.69 1321.57,1428.23 1322.73,1430.2C1323.89,1432.16 1326.44,1432.81 1328.4,1431.65C1343.17,1422.94 1355.41,1415.22 1365.62,1408.53C1376.64,1401.3 1385.28,1395.28 1392.13,1390.51C1392.08,1394.36 1391.95,1397.92 1391.77,1401.34C1391.19,1412.12 1390.13,1421.52 1389.47,1434.15C1388.57,1451.32 1381.45,1477.33 1372.68,1504.03C1357.71,1549.55 1337.75,1596.95 1333.53,1607.21C1330.67,1614.17 1327.59,1621.33 1324.39,1628.56C1317,1645.32 1309.05,1662.46 1302.08,1678.48C1298.33,1687.09 1293.64,1696.39 1288.31,1706.31C1271.43,1737.74 1248.13,1775.34 1226.96,1817.28C1220.92,1829.25 1214.88,1842.1 1209.01,1855.08C1194.08,1888.08 1180.24,1921.89 1170.18,1943.86C1163.83,1957.74 1149.56,2000.42 1136.16,2043.16C1122.4,2087.09 1109.56,2131.1 1107.08,2143.94C1103.02,2164.91 1099.74,2187.44 1097.26,2210.09C1094.79,2232.64 1093.11,2255.32 1092.24,2276.68C1091.82,2287.13 1091.62,2299 1091.79,2310.86C1091.97,2322.8 1092.52,2334.72 1093.57,2345.22C1094.62,2355.67 1096.29,2371.14 1097.66,2385.73C1098.6,2395.72 1099.4,2405.29 1099.74,2412.5C1099.92,2416.31 1103.05,2419.31 1106.86,2419.33C1110.67,2419.36 1113.84,2416.41 1114.08,2412.6C1114.08,2412.6 1115.47,2390.35 1116.91,2373.51C1117.52,2366.39 1118.13,2360.28 1118.65,2357.42C1120.91,2345.04 1123.69,2328.03 1126.59,2312.84C1127.89,2306.04 1129.22,2299.61 1130.53,2294.16C1136.68,2268.61 1139.06,2257.93 1142.6,2243.47C1144.69,2234.91 1147.2,2225.01 1151.13,2209.9C1157.28,2186.31 1162.67,2168.26 1168.83,2150.46C1175,2132.62 1181.93,2115.02 1191.13,2092.38C1206.74,2053.93 1224.31,2016.52 1243.33,1979.86C1262.37,1943.12 1282.86,1907.13 1304.26,1871.55C1320.81,1844.03 1329.07,1830.33 1337.68,1816.81C1346.27,1803.31 1355.22,1790 1373.09,1763.31C1387.31,1742.07 1402.22,1721.35 1418.47,1701.76C1428.2,1690.02 1438.41,1678.69 1449.25,1667.91L1443.7,1682C1438.86,1695.6 1434.33,1709.72 1430.33,1723.97C1426.32,1738.27 1422.86,1752.72 1420.15,1766.94C1416.29,1787.3 1414.02,1808.36 1412.92,1829.49C1411.82,1850.51 1411.88,1871.6 1412.64,1892.15C1413.14,1905.64 1413.68,1919.06 1414.51,1932.39C1413.81,1935.82 1413.14,1939.23 1412.49,1942.61C1410.45,1953.22 1408.94,1963.11 1407.95,1973.07C1406.95,1983.03 1406.46,1993.05 1406.47,2003.9C1406.51,2041.49 1414.65,2083.47 1432.42,2119.58C1450.58,2156.49 1478.76,2187.25 1518.31,2201.56C1529.51,2205.62 1543.43,2208.88 1558.26,2210.01C1571.63,2211.02 1585.74,2210.31 1599.28,2206.95C1617.04,2202.55 1632.93,2195.93 1647.82,2187.11C1662.22,2178.58 1675.69,2167.98 1689.01,2155.3C1696.46,2148.22 1703.79,2138.97 1710.67,2129.14C1720.82,2114.68 1730.01,2098.99 1737.24,2087.77C1740.46,2082.77 1737.28,2079.34 1736.26,2078.38C1735.32,2077.49 1732.13,2074.86 1727.52,2077.44C1726.64,2077.93 1724.39,2079.62 1721.25,2082.22C1710.19,2091.38 1685.11,2113.39 1670.43,2123.22C1661.57,2129.15 1649.2,2136.81 1636.11,2143.06C1628.15,2146.86 1619.92,2150.14 1612.08,2152.13C1595.47,2156.33 1577.43,2157.65 1559.96,2155.04C1543.07,2152.51 1526.7,2146.31 1512.77,2135.4C1507.81,2131.53 1503.17,2127.09 1498.86,2122.47C1494.31,2117.59 1490.13,2112.49 1486.35,2107.57C1478.79,2097.74 1471.82,2087.5 1465.63,2076.81C1459.49,2066.19 1454.13,2055.12 1449.76,2043.57C1442.41,2024.12 1437.62,2004.38 1434.38,1984.39C1431.64,1967.44 1430.01,1950.32 1428.91,1933.04C1431.04,1922.72 1433.44,1912.25 1436.29,1902.01C1438.94,1892.48 1441.98,1883.16 1445.55,1874.35C1452.95,1856.06 1457.63,1842.9 1463.07,1828.91C1465.41,1822.87 1467.9,1816.68 1470.82,1809.83C1476.03,1797.61 1485.85,1775.55 1496.13,1752.84C1505.49,1732.18 1515.23,1710.98 1522.24,1696.15C1525.06,1690.2 1536.43,1669.9 1543.3,1659.14C1547.24,1664.54 1552.31,1672.42 1557.57,1679.42C1561.03,1684.03 1564.58,1688.28 1567.96,1691.4C1574.81,1697.73 1584.86,1704.56 1595.36,1710.54C1605.86,1716.53 1616.79,1721.68 1625.24,1724.71C1649.08,1733.26 1672.54,1736.55 1695.98,1736.34C1730.4,1736.03 1764.79,1728.12 1800.33,1718.31C1820.03,1712.88 1839.85,1705.49 1859.37,1697.07C1885.32,1685.87 1910.76,1672.85 1934.69,1660.22C1942.93,1675.02 1952.11,1689.34 1961.36,1703.09C1971.51,1718.17 1981.97,1733.05 1993.05,1747.43C2004.22,1761.9 2016.01,1775.87 2028.76,1789.03C2034.6,1795.06 2045.51,1805.04 2057.57,1815.81C2053.75,1818.09 2049.97,1820.39 2046.22,1822.71C2007.43,1846.66 1971.58,1874.85 1938.31,1905.88C1905.13,1936.82 1874.51,1970.59 1846.09,2005.8C1827.02,2029.42 1810.07,2054.82 1795.73,2081.6C1781.36,2108.41 1769.6,2136.6 1760.93,2165.78C1759.01,2172.25 1757.29,2178.78 1755.68,2185.34C1753.31,2195.03 1751.16,2204.8 1748.91,2214.53C1748.09,2218.1 1747.67,2220.65 1747.46,2222.95C1747.13,2226.5 1747.32,2229.45 1747.33,2235.03C1747.33,2236.18 1747.14,2239.01 1747.19,2239.77C1747.37,2242.42 1748.66,2243.8 1749.12,2244.28C1750.34,2245.59 1751.73,2246.18 1753.1,2246.4C1754.59,2246.65 1756.2,2246.48 1757.85,2245.49C1758.32,2245.21 1760.26,2244.28 1761.12,2240.99C1762.89,2234.21 1762.2,2231.69 1763.08,2227.2C1763.32,2225.98 1763.72,2224.58 1764.4,2222.78C1768.79,2211.15 1781.51,2188.73 1797.58,2163.21C1815.31,2135.06 1837.13,2103.24 1856.71,2077.9C1875.17,2053.99 1895.63,2031.77 1917.5,2011.02C1939.44,1990.2 1962.8,1970.87 1987.02,1952.81C1995.03,1946.83 2003.07,1940.87 2011.23,1935.1C2016.63,1931.29 2022.09,1927.55 2027.63,1923.95C2049.15,1910 2072.03,1898.09 2093.77,1884.42C2103.3,1878.42 2112.61,1872.1 2121.5,1865.14C2122.13,1864.64 2126.72,1859.12 2121.51,1853.8C2120.27,1852.53 2117.53,1850.01 2113.72,1846.61C2106.06,1839.77 2093.9,1829.15 2081.37,1818.1C2098.97,1808.04 2116.95,1798.45 2134.43,1789.69C2132.18,1807.38 2126.48,1850.13 2123.39,1897.42C2121.67,1923.6 2120.73,1951.14 2121.51,1976.68C2122.28,2001.81 2123.06,2028.55 2125.29,2057.43C2126.61,2074.57 2128.45,2092.47 2131.09,2111.23C2134.47,2135.28 2138.66,2156.74 2144.4,2177.21C2150.44,2198.73 2158.2,2219.16 2168.59,2240.34C2173.36,2250.07 2181.35,2262.14 2190.54,2274.54C2202.68,2290.92 2216.88,2307.94 2228.13,2320.87C2233.34,2326.86 2249.23,2343.41 2256.09,2350.35C2257.55,2351.83 2258.63,2352.89 2259.14,2353.37C2260.05,2354.22 2260.73,2354.59 2260.93,2354.7C2263.74,2356.21 2265.88,2355.43 2266.87,2355.03C2269.18,2354.1 2270.82,2352.38 2271.22,2349.45C2271.31,2348.77 2271.6,2347.01 2270.21,2344.78C2262.84,2332.9 2257.4,2322.76 2252.6,2312.87C2245.01,2297.24 2238.97,2282.24 2229.5,2262.19C2225.24,2253.18 2220.4,2236.94 2215.9,2219.35C2209.47,2194.19 2203.81,2166.28 2201.86,2152.11C2196.84,2115.76 2194.44,2079.09 2194.49,2042.41C2194.55,2005.72 2197.06,1969.02 2201.85,1932.65C2205.15,1907.6 2208.9,1883.57 2213.24,1859.64C2217.58,1835.71 2222.5,1811.89 2228.14,1787.26C2230.04,1778.95 2236.07,1756.46 2237.79,1746.87C2238.38,1743.63 2238.4,1741.3 2238.23,1740.34C2237.78,1737.74 2236.38,1736.36 2235.33,1735.6C2233.56,1734.31 2231.49,1733.81 2229.06,1734.54C2209.15,1740.53 2181.61,1751.66 2151.31,1765.93C2153.29,1752.54 2156.79,1730.75 2161.68,1705.76C2166.28,1682.29 2172.15,1656.07 2179.26,1631.27C2190.39,1592.44 2202.13,1552.04 2209.78,1525.15C2213.22,1513.07 2215.84,1503.7 2217.21,1498.4C2219.04,1491.36 2225.05,1475.35 2226.98,1468.05C2227.85,1464.75 2227.84,1462.32 2227.63,1461.32C2227.3,1459.77 2222.6,1452.24 2215.71,1457.56C2214.64,1458.38 2212.48,1460.31 2209.58,1463.03C2196.74,1475.08 2167.57,1503.93 2154.87,1513.96C2139.05,1526.45 2122.36,1537.72 2105.23,1548.31C2079.28,1564.35 2052.32,1578.83 2025.73,1593.57L1962.94,1627.86C1957.87,1630.68 1947.16,1636.74 1940.32,1640.69C1936.7,1633.51 1933.36,1626.22 1930.41,1618.82C1924.92,1605.07 1911.54,1576.89 1901.63,1540.08C1895.15,1515.98 1890.15,1488.13 1889.92,1458.21C1889.61,1418.43 1891.92,1387.07 1896.77,1360.24C1903.17,1324.78 1914.03,1297.3 1929.02,1268.64C1940.23,1247.2 1950.8,1229.38 1962.45,1213.57C1975.04,1196.45 1988.89,1181.7 2006.15,1167.18C2023.84,1152.29 2038.56,1141.45 2053.32,1133.01C2069.71,1123.64 2086.16,1117.25 2106.86,1111.44C2117.23,1108.53 2127.61,1106.5 2137.06,1105.22C2149.45,1103.55 2160.21,1103.15 2167.17,1103.84C2205.94,1107.67 2234.7,1112.75 2259.17,1121.4C2278.95,1128.38 2295.88,1137.72 2313.11,1150.6C2335.66,1167.46 2354.39,1189.71 2369.71,1214.56C2384.9,1239.2 2396.72,1266.4 2405.51,1293.5C2407.17,1298.6 2408.57,1303.78 2409.75,1309.01C2393.84,1318.02 2378.23,1329.6 2362.59,1343.95C2352.19,1353.49 2337.23,1368.03 2322.58,1386.15C2310.93,1400.54 2299.5,1417.18 2290.66,1435.34C2282.72,1451.63 2277.03,1468.74 2274.59,1486.08C2272.06,1503.96 2272.97,1522.08 2278.38,1539.84C2282.3,1552.73 2288.01,1565.04 2296.96,1574.31C2303.13,1580.71 2310.8,1585.71 2320.47,1588.55C2335.63,1593.01 2350.21,1590.58 2363.18,1584.04C2381.87,1574.62 2397.14,1556.47 2405.48,1539.3C2410.3,1529.36 2414.27,1518.07 2417.47,1506.33C2422.11,1489.34 2425.16,1471.42 2427,1455.48C2428.59,1441.72 2429.56,1427.52 2430.06,1413.03C2430.55,1399.14 2430.6,1384.98 2430.37,1370.68C2430.09,1354.4 2429.19,1337.83 2426.69,1321.56C2426.44,1319.93 2426.18,1318.31 2425.89,1316.69C2444.32,1307.52 2463.31,1301.93 2483.5,1299.59C2497.8,1297.94 2509.1,1297.57 2519.01,1298.25C2531.62,1299.12 2541.94,1301.69 2553.36,1305.33C2566.52,1309.53 2577.49,1315.68 2586.58,1324.15C2595.5,1332.46 2602.6,1342.97 2608.27,1355.91C2614.94,1371.15 2617.97,1385.84 2617.68,1400.92C2617.41,1415.56 2614.03,1430.54 2607.99,1446.71C2600.52,1466.7 2592.97,1484.55 2584.4,1500.51C2578.09,1512.26 2571.22,1522.98 2563.4,1532.75C2553.62,1544.99 2539.55,1560.39 2524.73,1575.65C2510.55,1590.24 2495.68,1604.7 2483.17,1616.14C2479.78,1619.24 2476.51,1622.45 2473.31,1625.73C2466.08,1633.14 2459.16,1640.88 2451.87,1648.23C2414.06,1686.33 2381.36,1714.05 2357.18,1750.96C2341.63,1774.72 2329.54,1802.23 2321.89,1838.58C2317.04,1861.62 2316.92,1882.81 2320.48,1901.9C2324.64,1924.25 2333.84,1943.76 2346.46,1960.08C2358.83,1976.08 2375.8,1988.62 2393.73,1997.97C2413.13,2008.1 2433.62,2014.47 2450.3,2017.57C2471.95,2021.59 2503.55,2022.8 2540.67,2016.31C2559.68,2012.98 2580.19,2007.77 2601.46,1999.62C2609.62,1996.49 2617.87,1992.87 2626.22,1988.86C2636.93,1983.69 2651.63,1973.63 2666.84,1961.85C2686.64,1946.51 2707.36,1928.31 2721.13,1914.76C2741.12,1895.09 2763.87,1872.22 2774.5,1861.78C2777.06,1859.26 2778.89,1857.48 2779.8,1856.67L2779.93,1856.53C2780.97,1855.92 2781.66,1854.8 2781.66,1853.51C2781.66,1853.05 2778.8,1848.24 2775.14,1851.33C2774.17,1852.15 2772.2,1853.94 2769.45,1856.48C2758.51,1866.59 2735.07,1888.75 2714.48,1907.79C2700.55,1920.68 2679.65,1937.92 2659.74,1952.39C2645.03,1963.08 2630.89,1972.23 2620.63,1976.81C2612.49,1980.45 2604.44,1983.63 2596.54,1986.54C2576.05,1994.08 2556.48,1999.31 2538.26,2002.48C2503.19,2008.58 2473.34,2007.51 2452.89,2003.69C2437.38,2000.8 2418.33,1994.84 2400.29,1985.41C2384.17,1976.99 2368.83,1965.78 2357.71,1951.38C2346.42,1936.77 2338.22,1919.3 2334.5,1899.29C2331.26,1881.87 2331.43,1862.55 2335.86,1841.52C2343.1,1807.21 2354.46,1781.22 2369.15,1758.8C2392.84,1722.66 2425.01,1695.65 2462.05,1658.34C2469.38,1650.97 2476.32,1643.2 2483.58,1635.77C2486.6,1632.68 2489.67,1629.66 2492.86,1626.75C2505.56,1615.14 2520.66,1600.48 2535.05,1585.67C2550.23,1570.05 2564.62,1554.26 2574.64,1541.74C2582.98,1531.3 2590.33,1519.87 2597.07,1507.31C2605.93,1490.83 2613.75,1472.4 2621.46,1451.74C2628.13,1433.9 2631.75,1417.35 2632.06,1401.19C2632.38,1384.1 2629,1367.42 2621.43,1350.14C2614.91,1335.25 2606.65,1323.19 2596.38,1313.63C2585.79,1303.77 2573.05,1296.53 2557.73,1291.64C2545.19,1287.64 2533.84,1284.86 2519.99,1283.91C2509.35,1283.18 2497.21,1283.54 2481.85,1285.32C2461.22,1287.7 2441.76,1293.23 2422.86,1302.18C2421.78,1297.77 2420.55,1293.4 2419.15,1289.08C2410,1260.91 2397.68,1232.65 2381.89,1207.04C2365.61,1180.64 2345.64,1157.05 2321.67,1139.15C2303.22,1125.37 2285.09,1115.4 2263.93,1107.93C2238.56,1098.96 2208.76,1093.61 2168.57,1089.64C2160.85,1088.88 2148.9,1089.23 2135.15,1091.09C2125.09,1092.45 2114.04,1094.62 2103,1097.72C2081.06,1103.88 2063.63,1110.71 2046.26,1120.64C2030.84,1129.46 2015.45,1140.74 1996.98,1156.29C1978.82,1171.58 1964.25,1187.12 1950.99,1205.14C1938.96,1221.49 1928.01,1239.89 1916.42,1262.06C1900.78,1291.98 1889.48,1320.69 1882.8,1357.72C1877.83,1385.27 1875.42,1417.47 1875.75,1458.32C1875.99,1489.54 1881.19,1518.61 1887.96,1543.76C1898.07,1581.29 1911.67,1610.04 1917.28,1624.07C1920.47,1632.07 1924.1,1639.96 1928.04,1647.73C1904.43,1660.18 1879.36,1673.03 1853.76,1684.06C1834.85,1692.22 1815.65,1699.39 1796.56,1704.65C1762.25,1714.11 1729.07,1721.86 1695.85,1722.16C1674.04,1722.35 1652.21,1719.31 1630.03,1711.36C1622.2,1708.55 1612.11,1703.76 1602.39,1698.22C1592.91,1692.81 1583.78,1686.7 1577.59,1680.98C1568.31,1672.4 1557.82,1654.16 1551.77,1646.87C1548.83,1643.32 1545.92,1641.68 1544.22,1641.3C1542.86,1641 1540.29,1640.76 1537.6,1643.08C1536.77,1643.8 1535.27,1645.57 1533.47,1648.21C1526.77,1658.11 1512.65,1683.21 1509.4,1690.08C1502.36,1704.97 1492.58,1726.24 1483.19,1746.97C1472.85,1769.8 1462.98,1791.97 1457.74,1804.26C1454.75,1811.25 1452.21,1817.59 1449.81,1823.77C1444.4,1837.69 1439.74,1850.8 1432.36,1869.01C1430.33,1874.03 1428.46,1879.2 1426.73,1884.48C1426.22,1866.62 1426.28,1848.4 1427.23,1830.24C1428.3,1809.76 1430.49,1789.35 1434.24,1769.62C1436.86,1755.79 1440.24,1741.74 1444.14,1727.84C1448.04,1713.9 1452.47,1700.11 1457.21,1686.81L1465.6,1665.52L1472.29,1649.3C1472.76,1648.07 1473.84,1645.37 1474.15,1644.02C1474.42,1642.8 1474.41,1641.8 1474.34,1641.15C1473.97,1637.77 1471.99,1636.11 1470.12,1635.26C1468.71,1634.62 1465.69,1633.45 1462.13,1636.49C1442.1,1653.62 1424.08,1672.53 1407.43,1692.61C1390.87,1712.57 1375.67,1733.68 1361.17,1755.33C1343.21,1782.15 1334.22,1795.54 1325.58,1809.1C1316.92,1822.7 1308.62,1836.48 1291.97,1864.15C1270.41,1899.99 1249.78,1936.25 1230.59,1973.25C1211.37,2010.31 1193.61,2048.12 1177.83,2086.98C1168.53,2109.9 1161.52,2127.71 1155.27,2145.77C1149,2163.89 1143.5,2182.27 1137.25,2206.28C1133.29,2221.49 1130.77,2231.44 1128.66,2240.06C1125.12,2254.53 1122.73,2265.23 1116.58,2290.8C1115.21,2296.45 1113.84,2303.1 1112.5,2310.14C1110.72,2319.44 1108.98,2329.42 1107.39,2338.6C1106.67,2329.82 1106.29,2320.24 1106.15,2310.65C1105.98,2299.07 1106.17,2287.47 1106.59,2277.26C1107.44,2256.22 1109.1,2233.88 1111.53,2211.65C1113.97,2189.4 1117.19,2167.26 1121.17,2146.67C1123.62,2134.02 1136.32,2090.71 1149.87,2047.46C1163.03,2005.44 1177,1963.49 1183.25,1949.84C1193.31,1927.85 1207.16,1894.02 1222.1,1861C1227.88,1848.21 1233.83,1835.55 1239.79,1823.76C1260.9,1781.93 1284.13,1744.45 1300.97,1713.12C1306.51,1702.81 1311.36,1693.15 1315.25,1684.21C1322.22,1668.21 1330.15,1651.1 1337.54,1634.37C1340.79,1627.02 1343.92,1619.74 1346.83,1612.67C1351.08,1602.32 1371.22,1554.47 1386.32,1508.51C1395.56,1480.41 1402.85,1452.98 1403.8,1434.9C1404.46,1422.28 1405.52,1412.88 1406.09,1402.1C1406.33,1397.62 1406.49,1392.91 1406.5,1387.65C1406.51,1385.32 1406.5,1383.04 1406.47,1380.79C1409.61,1378.74 1412.58,1376.87 1415.45,1375.1C1426.75,1368.13 1436.38,1362.82 1448.53,1355.3C1455.67,1350.88 1462.47,1346.79 1469.01,1342.92C1480,1336.4 1490.25,1330.52 1500.09,1324.71C1523.57,1310.86 1556.21,1292.28 1586.78,1265.46C1603.69,1250.61 1619.97,1233.25 1633.74,1212.79C1651.63,1186.21 1663.32,1167.16 1671.68,1147.63C1677.99,1132.87 1682.42,1117.82 1686.13,1099.08C1687.16,1093.93 1687.39,1080.19 1687.15,1065.11C1686.82,1044.85 1685.71,1022.11 1684.93,1015.23C1680.64,977.352 1677.2,951.041 1671.97,926.373C1667.98,907.572 1662.94,889.72 1655.69,868.469C1649.65,850.763 1643.35,834.196 1634.79,816.656C1627.48,801.678 1618.53,785.991 1606.7,768.287C1594.16,749.519 1579.42,731.686 1561.21,716.03C1549.77,706.19 1536.95,697.211 1522.45,689.4C1523.82,681.94 1524.24,674.18 1523.93,666.369C1523.36,651.782 1520.27,637.015 1516.36,623.813L1511.19,608.85L1504.78,592.654C1504.64,592.009 1504.05,589.318 1503.66,588.518C1502.68,586.479 1501.19,585.404 1499.93,584.837C1497.64,583.817 1494.65,583.328 1491.56,586.519C1482.52,595.88 1476.01,603.248 1469.87,610.909C1463.78,618.503 1458.05,626.387 1450.52,636.839C1442.96,647.324 1434.72,659.097 1428.89,671.658ZM2222.55,1751.36C2202.48,1758.26 2176.82,1769.13 2149.22,1782.42C2147.95,1794 2141.05,1843.15 2137.44,1898.34C2135.75,1924.07 2134.81,1951.14 2135.58,1976.25C2136.35,2001.17 2137.11,2027.7 2139.32,2056.35C2140.62,2073.21 2142.42,2090.82 2145.02,2109.27C2148.31,2132.65 2152.36,2153.51 2157.94,2173.41C2163.75,2194.12 2171.22,2213.78 2181.21,2234.16C2185.68,2243.27 2193.23,2254.55 2201.84,2266.18C2212.08,2280.01 2223.84,2294.3 2233.94,2306.11C2228.77,2294.68 2223.69,2282.76 2216.8,2268.19C2212.29,2258.64 2207.06,2241.47 2202.3,2222.82C2195.72,2197.09 2189.96,2168.53 2187.95,2154.03C2182.85,2117.04 2180.41,2079.72 2180.47,2042.39C2180.53,2005.09 2183.08,1967.79 2187.96,1930.82C2191.29,1905.54 2195.08,1881.29 2199.45,1857.14C2203.83,1833.01 2208.8,1808.97 2214.49,1784.13C2215.98,1777.59 2220.1,1762.12 2222.55,1751.36ZM1420.96,1990.98C1420.79,1995.17 1420.7,1999.46 1420.71,2003.89C1420.75,2039.43 1428.4,2079.14 1445.21,2113.29C1461.74,2146.88 1487.16,2175.12 1523.16,2188.15C1533.3,2191.82 1545.91,2194.76 1559.35,2195.78C1571.24,2196.69 1583.8,2196.09 1595.85,2193.1C1612.2,2189.05 1626.83,2182.95 1640.54,2174.83C1654.05,2166.82 1666.67,2156.85 1679.17,2144.96C1685.99,2138.47 1692.67,2129.95 1698.98,2120.95C1699.76,2119.83 1700.54,2118.7 1701.31,2117.57C1693.03,2124.35 1684.74,2130.84 1678.38,2135.1C1669.06,2141.34 1656.04,2149.39 1642.28,2155.96C1633.44,2160.18 1624.3,2163.79 1615.59,2165.99C1597.19,2170.65 1577.2,2172.08 1557.84,2169.19C1538.54,2166.31 1519.87,2159.14 1503.94,2146.68C1498.41,2142.34 1493.21,2137.4 1488.38,2132.23C1483.52,2127.01 1479.04,2121.56 1475,2116.3C1467.06,2105.98 1459.73,2095.22 1453.24,2083.98C1446.7,2072.69 1441,2060.91 1436.36,2048.63C1429.19,2029.66 1424.33,2010.43 1420.96,1990.98ZM2068.55,1825.56C2063.49,1828.55 2058.5,1831.56 2053.57,1834.61C2015.56,1858.08 1980.44,1885.7 1947.84,1916.11C1915.14,1946.59 1884.98,1979.88 1856.97,2014.59C1838.45,2037.53 1822,2062.2 1808.07,2088.21C1794.15,2114.18 1782.76,2141.5 1774.36,2169.77C1773.53,2172.57 1772.74,2175.38 1771.98,2178.19C1776.16,2171.12 1780.77,2163.56 1785.7,2155.73C1803.66,2127.22 1825.76,2094.99 1845.59,2069.31C1864.5,2044.83 1885.43,2022.07 1907.83,2000.82C1930.16,1979.62 1953.95,1959.92 1978.61,1941.53C1986.72,1935.48 1994.85,1929.45 2003.11,1923.61C2008.66,1919.69 2014.27,1915.85 2019.97,1912.15C2041.54,1898.15 2064.48,1886.2 2086.27,1872.5C2093.11,1868.19 2099.83,1863.71 2106.35,1858.93L2104.33,1857.12C2095.96,1849.64 2082.26,1837.69 2068.55,1825.56ZM2206.44,1485.55C2192.03,1499.38 2173.21,1517.48 2163.63,1525.04C2147.38,1537.88 2130.25,1549.46 2112.66,1560.34C2086.53,1576.49 2059.37,1591.09 2032.59,1605.94L1969.83,1640.22C1964.68,1643.09 1953.63,1649.33 1946.96,1653.2C1955.02,1667.71 1964.02,1681.74 1973.08,1695.21C1983.05,1710.04 1993.33,1724.67 2004.23,1738.81C2015.07,1752.87 2026.51,1766.43 2038.89,1779.21C2045.14,1785.67 2057.25,1796.68 2070.33,1808.32C2091.76,1795.93 2113.86,1784.19 2135.06,1773.76L2136.32,1773.14C2137.96,1760.46 2141.78,1734.08 2147.85,1703.05C2152.52,1679.21 2158.48,1652.57 2165.7,1627.38C2176.82,1588.56 2188.56,1548.17 2196.2,1521.29C2199.6,1509.35 2202.19,1500.1 2203.55,1494.86C2204.15,1492.53 2205.21,1489.21 2206.44,1485.55ZM2412.56,1324C2399.01,1332.12 2385.68,1342.27 2372.29,1354.54C2362.28,1363.73 2347.86,1377.73 2333.74,1395.18C2322.75,1408.78 2311.92,1424.47 2303.57,1441.63C2296.29,1456.55 2291.04,1472.21 2288.8,1488.09C2286.57,1503.91 2287.33,1519.95 2292.11,1535.66C2294.83,1544.61 2298.45,1553.28 2303.9,1560.4C2308.93,1566.96 2315.55,1572.14 2324.52,1574.78C2338.95,1579.03 2352.63,1574.75 2364.16,1566.79C2376.61,1558.19 2386.62,1545.29 2392.57,1533.03C2398.11,1521.61 2402.39,1508.25 2405.67,1494.58C2408.99,1480.76 2411.27,1466.63 2412.75,1453.83C2414.3,1440.45 2415.24,1426.63 2415.73,1412.53C2416.21,1398.88 2416.26,1384.96 2416.03,1370.92C2415.81,1357.86 2415.18,1344.61 2413.58,1331.49C2413.28,1328.99 2412.94,1326.49 2412.56,1324ZM1519.55,700.693C1515.47,712.822 1508.78,723.002 1500.58,732.065C1491.49,742.118 1480.43,750.697 1469.3,759.217L1472.45,763.224C1476.89,768.933 1481.24,774.677 1483.32,777.675C1493.77,792.757 1502.36,809.953 1508.39,827.982C1514.44,846.072 1517.93,864.997 1518.21,883.464C1518.47,900.54 1518.17,910.377 1517.18,920.15C1516.19,929.807 1514.51,939.401 1511.95,956.029C1509.82,969.88 1507.45,983.125 1503.71,996.09C1501.18,1004.86 1498.03,1013.5 1493.91,1022.12C1490.28,1029.72 1486.09,1036.78 1481.56,1043.54C1471.31,1058.84 1459.3,1072.59 1448.43,1088.12C1444.52,1093.71 1440.02,1101.25 1435.83,1108.95C1431.63,1116.69 1427.75,1124.59 1425.13,1130.9C1421.68,1139.2 1419.53,1147.79 1418.05,1156.53C1414.42,1178.07 1414.76,1200.5 1411.26,1221.97C1409.59,1232.18 1406.28,1241.82 1401.17,1250.28C1397.14,1256.95 1392,1262.89 1385.67,1267.83L1386.64,1272.56C1387.99,1278.96 1389.43,1285.34 1391.02,1291.68C1392.45,1297.43 1396.38,1305.75 1398.66,1312.69C1399.43,1315.02 1400.03,1317.21 1400.39,1319.17C1402.6,1331.31 1404.14,1342.27 1405.12,1353.26C1405.64,1359.01 1406,1364.78 1406.22,1370.73C1407.82,1369.7 1409.38,1368.72 1410.91,1367.77C1422.18,1360.77 1431.8,1355.43 1443.91,1347.88C1451.09,1343.39 1457.93,1339.25 1464.5,1335.34C1475.48,1328.78 1485.71,1322.86 1495.54,1317.02C1518.59,1303.32 1550.67,1284.98 1580.65,1258.5C1596.95,1244.11 1612.62,1227.3 1625.86,1207.5C1643.24,1181.51 1654.63,1162.91 1662.73,1143.82C1668.74,1129.63 1672.92,1115.17 1676.43,1097.17C1677.38,1092.33 1677.43,1079.44 1677.16,1065.29C1676.77,1045.42 1675.63,1023.13 1674.85,1016.39C1670.49,978.944 1667.02,952.934 1661.76,928.556C1657.8,910.16 1652.81,892.699 1645.64,871.915C1639.69,854.653 1633.5,838.5 1625.09,821.407C1617.93,806.846 1609.16,791.602 1597.59,774.401C1585.53,756.482 1571.39,739.453 1553.93,724.524C1543.7,715.776 1532.32,707.751 1519.55,700.693ZM1423.88,684.717C1419.08,686.054 1414.52,687.687 1410.09,689.542C1397.73,694.718 1386.33,701.591 1373.4,708.666C1370.24,710.398 1367.14,712.095 1364.05,713.651C1363.76,715.541 1363.42,717.427 1363.01,719.3C1360.6,730.499 1355.8,740.968 1349.9,750.942C1341.51,765.121 1330.87,778.283 1322.31,791.265L1300.51,825.925C1292.11,839.236 1284.26,851.326 1278.55,864.577C1274.9,873.02 1272.15,881.944 1270.71,892.009C1268.49,907.601 1269.1,923.197 1271.29,938.665C1274.66,962.432 1281.75,985.898 1288.34,1008.62C1293.23,1025.51 1299.66,1043.34 1303.67,1061.44C1306.46,1074.02 1308.09,1086.73 1307.39,1099.36C1307.01,1106.28 1300.71,1143.57 1297.2,1168.19C1296.21,1175.16 1295.45,1181.08 1295.13,1184.91C1294.72,1189.97 1293.33,1198.74 1292.68,1206.22C1292.42,1209.28 1292.28,1212.09 1292.46,1214.19C1293.56,1226.42 1298.17,1238.11 1305.75,1247.68C1313.03,1256.87 1323.05,1264.1 1335.33,1267.99C1337.08,1268.54 1339.3,1268.55 1341.6,1268.42C1345.88,1268.2 1350.4,1267.34 1353.74,1266.72C1356.81,1266.14 1360.28,1265.28 1363.64,1264.15C1365.8,1263.43 1367.92,1262.6 1369.85,1261.65C1369.48,1259.71 1369.11,1257.76 1368.75,1255.82C1364.77,1234.32 1361.63,1215.43 1359.27,1196.08C1356.98,1177.31 1355.42,1158.1 1354.56,1135.63C1354.01,1121.26 1354.15,1107.8 1354.65,1094.85C1355.47,1073.86 1357.25,1054.26 1358.6,1034.43C1358.86,1030.62 1359.39,1025.96 1360.05,1020.99C1361.44,1010.57 1363.41,998.726 1364.5,990.83L1375.49,908.548C1379.33,882.064 1384.62,854.73 1394.56,829.53C1401.35,812.32 1410.3,796.1 1422.37,781.76C1430.08,772.596 1439.49,764.675 1449.28,757.016C1442.82,749.633 1435.49,742.335 1430.03,734.063C1425.67,727.475 1422.46,720.297 1421.38,712.133C1420.14,702.797 1421.24,693.612 1423.88,684.717ZM1458.14,767.847C1449.09,774.992 1440.44,782.422 1433.28,790.939C1422.21,804.088 1414.05,818.984 1407.83,834.764C1398.29,858.942 1393.3,885.184 1389.62,910.593L1378.65,992.779C1377.57,1000.66 1375.61,1012.48 1374.22,1022.88C1373.6,1027.51 1373.1,1031.85 1372.86,1035.4C1371.53,1055.09 1369.75,1074.56 1368.94,1095.41C1368.46,1108 1368.32,1121.1 1368.86,1135.08C1369.71,1157.11 1371.23,1175.94 1373.48,1194.34C1375.76,1213.06 1378.8,1231.33 1382.62,1252.02C1385.19,1249.3 1387.43,1246.33 1389.35,1243.15C1393.56,1236.16 1396.23,1228.18 1397.6,1219.75C1401.08,1198.25 1400.72,1175.8 1404.34,1154.23C1405.98,1144.45 1408.41,1134.84 1412.26,1125.56C1415.03,1118.87 1419.12,1110.49 1423.56,1102.29C1428.01,1094.08 1432.81,1086.06 1436.98,1080.1C1447.78,1064.65 1459.73,1050.97 1469.92,1035.75C1474.08,1029.54 1477.94,1023.07 1481.27,1016.08C1485.04,1008.18 1487.92,1000.25 1490.24,992.206C1493.81,979.81 1496.05,967.141 1498.08,953.898C1500.58,937.598 1502.24,928.194 1503.2,918.728C1504.15,909.391 1504.4,899.992 1504.15,883.679C1503.89,866.627 1500.63,849.156 1495.04,832.454C1489.42,815.703 1481.45,799.722 1471.73,785.712C1469.74,782.844 1465.57,777.356 1461.32,771.896C1460.25,770.531 1459.18,769.167 1458.14,767.847ZM1506.7,694.153C1503.76,692.772 1500.74,691.441 1497.65,690.161C1493.41,688.405 1488.25,687.167 1482.91,686.198C1474.39,684.651 1465.44,683.818 1458.7,682.986C1455.05,682.534 1449.6,681.989 1444.42,681.836C1442.86,681.789 1441.33,681.776 1439.89,681.818C1439.67,682.336 1439.47,682.856 1439.27,683.378C1435.96,692.026 1434.17,701.05 1435.39,710.279C1436.18,716.25 1438.63,721.459 1441.82,726.279C1447.09,734.272 1454.28,741.247 1460.47,748.382C1471,740.279 1481.39,732.051 1490.02,722.511C1497.37,714.392 1503.36,705.251 1506.7,694.153ZM1278.13,616.136L1281.4,628.861C1285.85,646.86 1290.67,669.56 1301.55,686.618C1308.32,697.234 1317.51,705.593 1330.83,708.55C1336.07,709.713 1340.86,709.478 1345.44,708.387C1347.77,707.833 1350.05,707.072 1352.31,706.164C1352.73,700.81 1352.52,695.474 1351.48,690.351C1349.84,682.301 1346.12,674.792 1339.48,668.7C1336.21,665.692 1332.81,662.824 1329.35,660.023C1321.02,653.273 1312.37,646.897 1304.21,639.938L1282.88,620.412L1278.13,616.136ZM1494.18,604.409C1489.15,609.866 1484.96,614.756 1480.93,619.778C1474.97,627.2 1469.37,634.909 1462,645.123C1456.41,652.871 1450.37,661.347 1445.4,670.363C1450.77,670.56 1456.34,671.131 1460.12,671.608C1467.04,672.48 1476.22,673.371 1484.96,674.981C1491.14,676.12 1497.11,677.624 1502.01,679.672C1504.41,680.675 1506.78,681.707 1509.1,682.77C1510.04,675.48 1509.99,667.919 1509.29,660.392C1508.25,649.161 1505.75,638.001 1502.74,627.844L1497.89,613.8L1494.18,604.409Z" style="fill:rgb(120,0,172);"/>
        </g>
    </g>
</svg>
